<?xml version="1.0" standalone="no"?>
<!DOCTYPE svg PUBLIC "-//W3C//DTD SVG 20010904//EN"
 "http://www.w3.org/TR/2001/REC-SVG-20010904/DTD/svg10.dtd">
<svg version="1.0" xmlns="http://www.w3.org/2000/svg"
 width="960.000000pt" height="960.000000pt" viewBox="0 0 960.000000 960.000000"
 preserveAspectRatio="xMidYMid meet">
<metadata>
Created by potrace 1.11, written by Peter Selinger 2001-2013
</metadata>
<g transform="translate(0.000000,960.000000) scale(0.100000,-0.100000)"
fill="#000000" stroke="none">
<path d="M3760 8395 c-7 -9 -89 -147 -127 -215 -8 -14 -23 -38 -34 -55 -10
-16 -24 -42 -30 -57 -6 -16 -16 -28 -22 -28 -6 0 -7 -3 -4 -7 4 -3 3 -11 -2
-17 -17 -20 -221 -378 -221 -387 0 -5 -4 -9 -10 -9 -5 0 -10 -4 -10 -9 0 -8
-63 -120 -210 -371 -21 -36 -122 -211 -225 -390 -102 -179 -190 -332 -195
-340 -26 -43 -277 -476 -350 -605 -10 -16 -49 -85 -89 -152 -39 -68 -71 -127
-71 -133 0 -5 -4 -10 -9 -10 -5 0 -11 -8 -15 -17 -3 -10 -23 -47 -45 -83 -22
-36 -44 -72 -47 -80 -13 -28 -157 -275 -176 -302 -11 -16 -16 -28 -11 -28 4 0
4 -4 -2 -8 -14 -10 -33 -41 -46 -74 -6 -16 -15 -28 -20 -28 -5 0 -8 -3 -7 -7
2 -8 -16 -41 -69 -126 -23 -38 -29 -55 -21 -64 6 -7 7 -13 3 -13 -4 0 -3 -6 3
-12 8 -11 117 -197 214 -368 11 -19 37 -64 58 -100 21 -36 48 -83 60 -105 13
-22 31 -53 41 -70 11 -16 24 -41 31 -55 7 -14 15 -27 18 -30 3 -3 21 -32 40
-65 18 -33 43 -78 56 -100 12 -22 67 -118 123 -214 56 -95 101 -175 101 -178
0 -2 17 -32 39 -66 21 -34 62 -105 92 -157 30 -52 60 -104 66 -115 7 -11 16
-28 19 -37 3 -10 10 -18 15 -18 5 0 9 -5 9 -11 0 -6 28 -58 63 -117 35 -59 66
-114 70 -122 4 -8 13 -24 20 -35 7 -11 45 -78 86 -150 41 -71 77 -132 80 -135
3 -3 17 -27 31 -53 14 -27 30 -56 35 -65 54 -88 85 -145 85 -152 0 -4 3 -10 8
-12 6 -3 15 -17 61 -103 9 -16 18 -32 22 -35 3 -3 20 -32 39 -65 66 -118 262
-460 387 -673 45 -78 83 -147 83 -152 0 -6 15 -10 33 -8 18 1 38 -1 44 -5 6
-4 14 -3 18 2 3 6 13 7 22 4 14 -6 70 -7 91 -3 4 1 30 1 57 0 28 0 56 0 63 0
25 0 49 0 100 -1 29 0 56 1 58 4 3 3 19 1 35 -3 16 -5 29 -5 29 -1 0 5 12 6
28 4 29 -4 90 -6 107 -3 26 4 104 2 113 -4 6 -3 13 -2 17 3 3 6 15 7 27 2 12
-4 38 -5 59 -1 20 4 44 3 52 -2 9 -5 18 -4 22 1 3 6 15 7 27 2 12 -4 38 -5 59
-1 20 4 44 3 52 -2 9 -5 18 -4 22 1 3 6 15 7 27 2 12 -4 38 -5 59 -1 20 4 44
3 52 -2 9 -5 18 -4 22 1 3 6 15 7 27 2 12 -4 38 -5 59 -1 20 4 44 3 52 -2 9
-5 18 -4 22 1 3 6 15 7 27 2 12 -4 38 -5 59 -1 20 4 44 3 52 -2 9 -5 18 -4 22
1 3 6 15 7 27 2 12 -4 38 -5 59 -1 20 4 44 3 52 -2 9 -5 18 -4 22 1 3 6 15 7
27 2 12 -4 38 -5 59 -1 20 4 44 3 52 -2 9 -5 18 -4 22 1 3 6 16 7 28 3 20 -6
54 -7 82 -2 26 4 104 2 113 -4 6 -3 13 -2 17 3 3 6 13 7 22 4 14 -6 70 -7 91
-3 4 1 30 1 57 0 28 0 56 0 63 0 25 0 49 0 100 -1 29 0 56 1 58 4 3 3 19 1 35
-3 16 -5 29 -5 29 -1 0 5 12 6 28 4 29 -4 90 -6 107 -3 6 1 33 1 60 0 28 0 56
0 63 0 25 0 49 0 100 -1 29 0 56 1 58 4 3 3 19 1 35 -3 16 -5 29 -5 29 -1 0 5
12 6 28 4 29 -4 90 -6 107 -3 26 4 104 2 113 -4 6 -3 13 -2 17 3 3 6 15 7 27
2 12 -4 38 -5 59 -1 20 4 44 3 52 -2 9 -5 18 -4 22 1 3 6 15 7 27 2 12 -4 38
-5 59 -1 20 4 44 3 52 -2 9 -5 18 -4 22 1 3 6 15 7 27 2 12 -4 38 -5 59 -1 20
4 44 3 52 -2 9 -5 18 -4 22 1 3 6 15 7 27 2 11 -4 40 -4 64 -1 24 4 47 3 53
-3 5 -5 16 -5 29 2 10 6 22 7 26 4 6 -7 97 -5 104 2 2 2 -9 28 -26 57 -17 29
-39 69 -50 88 -11 19 -43 76 -72 125 -29 50 -64 110 -78 135 -14 25 -36 62
-49 82 -12 21 -23 40 -23 44 0 3 -8 18 -19 32 -10 15 -31 50 -45 77 -15 28
-36 64 -46 80 -11 17 -26 44 -35 60 -8 17 -26 48 -40 70 -14 22 -28 47 -32 55
-4 8 -24 43 -45 78 -21 34 -38 67 -38 72 0 6 -5 10 -11 10 -5 0 -8 4 -4 9 3 5
1 12 -4 15 -5 3 -35 52 -67 108 -31 57 -65 111 -73 122 -9 10 -15 21 -15 25 2
6 -87 162 -132 233 -13 21 -24 40 -24 43 0 5 -76 137 -101 175 -5 8 -12 23
-15 33 -4 9 -10 17 -15 17 -5 0 -9 9 -9 19 0 11 -4 21 -9 23 -4 1 -32 46 -61
98 -29 52 -60 103 -68 113 -8 9 -11 17 -7 17 4 0 1 8 -7 18 -8 9 -51 79 -94
155 -43 76 -89 154 -101 175 -12 20 -25 44 -29 52 -7 13 -45 79 -128 220 -15
25 -33 60 -41 78 -9 17 -20 32 -25 32 -6 0 -10 9 -10 19 0 11 -5 23 -11 26 -5
4 -14 17 -19 28 -6 12 -21 40 -34 62 -14 22 -31 51 -39 65 -80 144 -152 265
-159 268 -4 2 -8 11 -8 20 0 8 -6 23 -14 31 -7 9 -25 36 -38 61 -14 25 -42 73
-62 107 l-36 62 21 38 c12 21 33 58 47 83 14 25 33 57 43 72 11 14 19 28 19
31 0 10 74 132 85 139 5 4 6 8 1 8 -5 0 -4 6 2 13 5 6 19 28 30 47 11 19 68
118 127 220 59 102 119 205 133 230 14 25 48 83 75 130 27 47 58 101 69 120
11 19 32 55 47 80 14 25 33 57 41 71 76 133 223 387 230 399 9 14 154 265 202
350 153 267 314 546 318 550 5 5 13 20 70 121 58 105 185 324 190 329 3 3 15
23 26 45 12 22 37 67 56 100 20 33 76 130 125 215 49 85 96 165 104 178 12 20
12 24 -1 32 -8 5 -19 6 -24 2 -14 -8 -56 -8 -83 0 -12 4 -25 3 -28 -3 -4 -5
-13 -6 -22 0 -9 4 -30 5 -47 1 -17 -4 -40 -4 -51 0 -11 4 -27 4 -36 -1 -8 -4
-21 -4 -28 0 -7 5 -27 5 -45 1 -17 -4 -40 -4 -51 0 -11 4 -27 4 -35 0 -8 -4
-24 -4 -35 0 -11 4 -31 4 -45 0 -14 -4 -34 -4 -45 0 -11 4 -27 4 -36 -1 -8 -4
-21 -4 -28 0 -7 5 -27 5 -45 1 -17 -4 -40 -4 -51 0 -11 4 -27 4 -35 0 -8 -4
-24 -4 -35 0 -11 4 -31 4 -45 0 -14 -4 -34 -4 -45 0 -11 4 -27 4 -36 -1 -8 -4
-21 -4 -28 0 -7 5 -27 5 -45 1 -17 -4 -40 -4 -51 0 -11 4 -27 4 -35 0 -8 -4
-24 -4 -35 0 -11 4 -31 4 -45 0 -14 -4 -34 -4 -45 0 -11 4 -27 4 -36 -1 -8 -4
-21 -4 -28 0 -7 5 -27 5 -45 1 -17 -4 -40 -4 -51 0 -11 4 -27 4 -35 0 -8 -4
-24 -4 -35 0 -11 4 -33 4 -50 0 -17 -4 -41 -3 -53 1 -12 5 -24 4 -27 -2 -4 -5
-11 -6 -17 -3 -9 6 -87 8 -113 4 -15 -3 -75 -1 -112 3 -18 2 -33 0 -33 -5 0
-4 -10 -4 -22 1 -13 5 -33 5 -46 0 -13 -5 -21 -5 -18 -1 2 4 -20 5 -50 2 -31
-3 -54 -2 -54 3 0 5 -6 4 -13 -2 -8 -6 -17 -8 -20 -5 -5 6 -86 8 -112 4 -15
-3 -75 -1 -112 3 -18 2 -33 0 -33 -5 0 -4 -10 -4 -22 1 -13 5 -33 5 -46 0 -13
-5 -21 -5 -18 -1 2 4 -20 5 -50 2 -31 -3 -54 -2 -54 3 0 5 -6 4 -13 -2 -8 -6
-17 -8 -20 -5 -5 6 -86 8 -112 4 -15 -3 -75 -1 -112 3 -18 2 -33 0 -33 -5 0
-4 -10 -4 -22 1 -13 5 -33 5 -46 0 -13 -5 -21 -5 -18 -1 2 4 -20 5 -50 2 -31
-3 -54 -2 -54 3 0 5 -6 4 -13 -2 -8 -6 -17 -8 -20 -5 -5 6 -86 8 -112 4 -15
-3 -75 -1 -112 3 -18 2 -33 0 -33 -5 0 -4 -10 -4 -22 1 -13 5 -33 5 -46 0 -13
-5 -21 -5 -18 -1 2 4 -20 5 -50 2 -31 -3 -54 -2 -54 3 0 5 -6 4 -13 -2 -8 -6
-17 -8 -20 -5 -5 6 -86 8 -112 4 -15 -3 -75 -1 -112 3 -18 2 -33 0 -33 -5 0
-4 -10 -4 -22 1 -13 5 -33 5 -46 0 -13 -5 -21 -5 -18 -1 2 4 -20 5 -50 2 -31
-3 -54 -2 -54 3 0 5 -6 4 -13 -2 -8 -6 -16 -8 -20 -5 -10 10 -138 9 -147 -1z"/>
</g>
</svg>
